<?xml version="1.0" encoding="UTF-8" standalone="no"?>
<svg width="31px" height="30px" viewBox="0 0 31 30" version="1.1" xmlns="http://www.w3.org/2000/svg" xmlns:xlink="http://www.w3.org/1999/xlink">
    <!-- Generator: Sketch 39.1 (31720) - http://www.bohemiancoding.com/sketch -->
    <title>Map_View@3x</title>
    <desc>Created with Sketch.</desc>
    <defs>
        <polygon id="path-1" points="12.0956157 17.750602 0 17.750602 0 0.0104497139 12.0956157 0.0104497139 12.0956157 17.750602"></polygon>
    </defs>
    <g id="Symbols" stroke="none" stroke-width="1" fill="none" fill-rule="evenodd">
        <g id="Map_View">
            <g id="Close" stroke="#262E2E">
                <path d="M15.2861308,29.9595918 C6.8577676,29.9595918 0,23.2395918 0,14.9797959 C0,6.72 6.8577676,0 15.2861308,0 C23.7138692,0 30.5716368,6.72 30.5716368,14.9797959 C30.5716368,23.2395918 23.7138692,29.9595918 15.2861308,29.9595918" id="Fill-1"></path>
            </g>
            <g id="Page-1" transform="translate(9.500000, 7.000000)">
                <path d="M6.04780652,7.44297456 C5.3006046,7.44297456 4.69486965,6.83487933 4.69486965,6.08476591 C4.69486965,5.33465249 5.3006046,4.72655727 6.04780652,4.72655727 C6.79500844,4.72655727 7.4007434,5.33465249 7.4007434,6.08476591 C7.39991728,6.83454492 6.79467533,7.44214522 6.04780652,7.44297456 M6.04780652,4.27230505 C5.05027591,4.27230505 4.24162107,5.08411084 4.24162107,6.08552837 C4.24162107,7.08694591 5.05027591,7.89873832 6.04780652,7.89873832 C7.04533714,7.89873832 7.85399198,7.08694591 7.85399198,6.08552837 C7.85315253,5.08445863 7.0449907,4.27313439 6.04780652,4.27230505" id="Fill-1" fill="#000000"></path>
                <g id="Group-5" transform="translate(0.000000, 0.002943)">
                    <mask id="mask-2" fill="white">
                        <use xlink:href="#path-1"></use>
                    </mask>
                    <g id="Clip-4"></g>
                    <path d="M6.04780652,0.0104497139 C2.70924221,0.0142085075 0.00374153929,2.73025126 -2.66491406e-06,6.08182442 C-2.66491406e-06,7.45520201 0.972197945,9.77196992 2.88944369,12.9669178 C4.29903664,15.3178091 5.72751051,17.3054485 5.74186107,17.3251654 L6.04780652,17.7506047 L6.35375198,17.3251654 C6.35637692,17.3215671 6.40650395,17.2517686 6.49500575,17.12615 L5.70305992,15.9465844 L5.70351296,15.9462633 C5.15852471,15.1488774 4.3413155,13.9193506 3.53379325,12.5702915 C1.71629524,9.53687811 0.755420514,7.29670398 0.755420514,6.08106196 C0.755074075,3.1467684 3.12430257,0.767773062 6.04720692,0.76743865 C8.97011127,0.767104238 11.3398727,3.14556452 11.3401925,6.07985808 L11.3401925,6.08106196 C11.3401925,7.29746644 10.3793178,9.54218858 8.56181979,12.5702915 C7.82403834,13.8000724 7.08059395,14.9305998 6.54242789,15.7249359 L6.99698228,16.4020004 C7.54762014,15.5963611 8.38005933,14.3433586 9.20616936,12.9669178 C11.1234018,9.77196992 12.0956157,7.45520201 12.0956157,6.08182442 C12.0918715,2.73025126 9.38637084,0.0142085075 6.04780652,0.0104497139" id="Fill-3" fill="#000000" mask="url(#mask-2)"></path>
                </g>
            </g>
        </g>
    </g>
</svg>