<?xml version="1.0" encoding="UTF-8" standalone="no"?>
<svg width="33px" height="33px" viewBox="0 0 33 33" version="1.1" xmlns="http://www.w3.org/2000/svg" xmlns:xlink="http://www.w3.org/1999/xlink">
    <!-- Generator: Sketch 39.1 (31720) - http://www.bohemiancoding.com/sketch -->
    <title>twitter@3x</title>
    <desc>Created with Sketch.</desc>
    <defs></defs>
    <g id="Desktop-_-Image-Led" stroke="none" stroke-width="1" fill="none" fill-rule="evenodd">
        <g id="4_Desktop_1280-TeamCEO" transform="translate(-589.000000, -1083.000000)">
            <g id="social" transform="translate(549.000000, 1084.000000)">
                <g id="twitter" transform="translate(41.000000, 0.000000)">
                    <path d="M15.2835821,31 L15.2835821,31 C6.85373134,31 0,24.0492188 0,15.5 L0,15.5 C0,6.95078125 6.85373134,0 15.2835821,0 L15.2835821,0 C23.7134328,0 30.5671642,6.95078125 30.5671642,15.5 L30.5671642,15.5 C30.5671642,24.0492188 23.7134328,31 15.2835821,31 L15.2835821,31 Z" id="XMLID_3_" stroke="#262E2E"></path>
                    <path d="M22.9014925,10.7046875 C22.3522388,10.946875 21.7313433,11.1164063 21.1104478,11.2132813 C21.7552239,10.8257813 22.2567164,10.1960938 22.4955224,9.46953125 C21.8985075,9.8328125 21.2298507,10.0992188 20.5134328,10.2445313 C19.9402985,9.6390625 19.1283582,9.2515625 18.2447761,9.2515625 C16.5253731,9.2515625 15.1164179,10.6804688 15.1164179,12.4242188 C15.1164179,12.6664063 15.1402985,12.9085938 15.1880597,13.1507813 C12.5850746,13.0296875 10.2925373,11.7703125 8.74029851,9.8328125 C8.47761194,10.2929688 8.31044776,10.85 8.31044776,11.43125 C8.31044776,12.5210938 8.85970149,13.4898438 9.69552239,14.0710938 C9.19402985,14.046875 8.69253731,13.9015625 8.28656716,13.6835938 L8.28656716,13.7320313 C8.28656716,15.2578125 9.36119403,16.5414063 10.7940299,16.8320313 C10.5313433,16.9046875 10.2447761,16.953125 9.98208955,16.953125 C9.79104478,16.953125 9.5761194,16.9289063 9.38507463,16.9046875 C9.79104478,18.1640625 10.9373134,19.084375 12.2985075,19.1085938 C11.2238806,19.95625 9.88656716,20.4648438 8.42985075,20.4648438 C8.16716418,20.4648438 7.92835821,20.440625 7.68955224,20.4164063 C9.07462687,21.3125 10.7223881,21.8453125 12.4656716,21.8453125 C18.2208955,21.8453125 21.3492537,17.0257813 21.3492537,12.8359375 L21.3492537,12.4242188 C21.9462687,11.915625 22.4716418,11.3585938 22.9014925,10.7046875 L22.9014925,10.7046875 Z" id="XMLID_4_" fill="#262E2E"></path>
                </g>
            </g>
        </g>
    </g>
</svg>