<?xml version="1.0" encoding="UTF-8" standalone="no"?>
<svg width="33px" height="33px" viewBox="0 0 33 33" version="1.1" xmlns="http://www.w3.org/2000/svg" xmlns:xlink="http://www.w3.org/1999/xlink">
    <!-- Generator: Sketch 39.1 (31720) - http://www.bohemiancoding.com/sketch -->
    <title>linkedin@3x</title>
    <desc>Created with Sketch.</desc>
    <defs></defs>
    <g id="Desktop-_-Image-Led" stroke="none" stroke-width="1" fill="none" fill-rule="evenodd">
        <g id="4_Desktop_1280-TeamCEO" transform="translate(-548.000000, -1083.000000)">
            <g id="social" transform="translate(549.000000, 1084.000000)">
                <g id="linkedin">
                    <path d="M15.2835821,31 L15.2835821,31 C6.85373134,31 0,24.0492188 0,15.5 L0,15.5 C0,6.95078125 6.85373134,0 15.2835821,0 L15.2835821,0 C23.7134328,0 30.5671642,6.95078125 30.5671642,15.5 L30.5671642,15.5 C30.5671642,24.0492188 23.7134328,31 15.2835821,31 L15.2835821,31 Z" id="XMLID_4_" stroke="#262E2E"></path>
                    <path d="M7.90447761,12.884375 L11.0567164,12.884375 L11.0567164,23.1289063 L7.90447761,23.1289063 L7.90447761,12.884375 L7.90447761,12.884375 Z M9.48059701,7.7984375 C10.4835821,7.7984375 11.2955224,8.621875 11.2955224,9.6390625 C11.2955224,10.65625 10.4835821,11.4796875 9.48059701,11.4796875 C8.47761194,11.4796875 7.66567164,10.65625 7.66567164,9.6390625 C7.66567164,8.621875 8.47761194,7.7984375 9.48059701,7.7984375 L9.48059701,7.7984375 Z" id="XMLID_5_" fill="#262E2E"></path>
                    <path d="M13.038806,12.884375 L16.0477612,12.884375 L16.0477612,14.2890625 L16.0955224,14.2890625 C16.5253731,13.4898438 17.5522388,12.6421875 19.080597,12.6421875 C22.2567164,12.6421875 22.8537313,14.7734375 22.8537313,17.534375 L22.8537313,23.153125 L19.7014925,23.153125 L19.7014925,18.1640625 C19.7014925,16.9773438 19.6776119,15.4515625 18.0776119,15.4515625 C16.4298507,15.4515625 16.1910448,16.7351563 16.1910448,18.0914063 L16.1910448,23.153125 L13.038806,23.153125 L13.038806,12.884375 L13.038806,12.884375 Z" id="XMLID_8_" fill="#262E2E"></path>
                </g>
            </g>
        </g>
    </g>
</svg>