<?xml version="1.0" encoding="UTF-8" standalone="no"?>
<svg width="49px" height="50px" viewBox="0 0 49 50" version="1.1" xmlns="http://www.w3.org/2000/svg" xmlns:xlink="http://www.w3.org/1999/xlink">
    <defs>
        <polygon id="path-1" points="36.9507673 37.24 0 37.24 0 0.050312 36.9507673 0.050312"></polygon>
    </defs>
    <g id="Symbols" stroke="none" stroke-width="1" fill="none" fill-rule="evenodd">
        <g id="Map_Circle_Logo_white">
            <g id="Page-1" transform="translate(12.000000, 6.000000)">
                <g id="Group-3" transform="translate(0.000000, 0.709536)">
                    <mask id="mask-2" fill="white">
                        <use xlink:href="#path-1"></use>
                    </mask>
                    <g id="Clip-2"></g>
                    <path d="M18.4756857,1.039832 C8.83076735,1.039832 0.983746939,8.937752 0.983746939,18.645232 C0.983746939,28.352712 8.83076735,36.250632 18.4756857,36.250632 C28.119849,36.250632 35.9668694,28.352712 35.9668694,18.645232 C35.9668694,8.937752 28.119849,1.039832 18.4756857,1.039832 M18.4756857,37.240152 C8.28860408,37.240152 -0.000151020408,28.898392 -0.000151020408,18.645232 C-0.000151020408,8.392072 8.28860408,0.050312 18.4756857,0.050312 C28.6620122,0.050312 36.9507673,8.392072 36.9507673,18.645232 C36.9507673,28.898392 28.6620122,37.240152 18.4756857,37.240152" id="Fill-1" fill="#FFFFFF" mask="url(#mask-2)"></path>
                </g>
                <path d="M9.20945102,20.398248 L9.20945102,17.927488 L8.74204286,16.923528 L8.74204286,19.391248 C8.74204286,25.440088 8.06849184,26.004008 7.05136939,26.517768 L7.05136939,26.736648 L11.2701245,26.736648 L11.2701245,26.517768 C10.259798,26.108888 9.20945102,25.966008 9.20945102,20.398248" id="Fill-4" fill="#FFFFFF"></path>
                <path d="M7.72507143,12.19268 L7.72507143,12.36672 C8.24911224,12.6844 8.96343878,12.8402 9.88164286,15.16656 L14.951398,26.7368 L15.2798673,26.7368 L16.9826224,22.21784 L12.5365816,12.20104 L7.72507143,12.19268 Z" id="Fill-6" fill="#FFFFFF"></path>
                <path d="M25.9595776,18.859704 L25.9595776,18.806504 C27.7167,18.379384 29.5040265,17.398984 29.5040265,15.464024 C29.5040265,12.645184 26.9412102,12.214264 23.8958837,12.214264 C22.6794143,12.214264 21.4425571,12.216544 20.4548837,12.219584 L19.3743327,15.160024 L19.3743327,23.802744 C19.3743327,25.613824 18.9688429,26.243864 18.4606592,26.562304 L18.4606592,26.753064 L22.6348633,26.753064 L22.6431694,14.596864 C22.6431694,13.315504 23.0501694,12.668744 23.9494959,12.668744 C25.3064143,12.668744 26.3643122,13.258504 26.3643122,15.412344 C26.3643122,17.659664 24.8148429,18.624104 23.5168224,18.733544 L23.5100265,19.123424 C25.4989653,19.196384 27.2832714,20.132704 27.2832714,22.683264 C27.2832714,25.361504 25.0255163,26.191424 23.4601898,26.409544 L23.4579245,26.753064 C26.9502714,26.928624 30.5309653,26.074384 30.5309653,22.623984 C30.5309653,20.151704 28.1274755,19.171304 25.9595776,18.859704" id="Fill-8" fill="#FFFFFF"></path>
            </g>
        </g>
    </g>
</svg>