<?xml version="1.0" encoding="UTF-8" standalone="no"?><svg xmlns="http://www.w3.org/2000/svg" xmlns:xlink="http://www.w3.org/1999/xlink"><symbol viewBox="0 0 9 6" id="chevron-down"><path d="M4.37 5.45l4.08-4.116-.576-.612L4.37 4.286.866.71l-.576.624z" fill="none" fill-rule="evenodd"/></symbol><symbol viewBox="0 0 9 6" id="chevron-down-dark"><title>Chevron_down@3x</title><path d="M4.37 5.45l4.08-4.116-.576-.612L4.37 4.286.866.71l-.576.624z" fill="#262E2E" fill-rule="evenodd"/></symbol><symbol viewBox="77 58 6 9" id="chevron-right"><path fill="#FFF" fill-rule="evenodd" d="M82.22 62.848l-4.116-4.08-.612.576 3.564 3.504-3.576 3.504.624.576z"/></symbol><symbol viewBox="0 0 9 6" id="chevron-up"><path d="M4.37.71L.29 4.826l.576.612L4.37 1.874 7.874 5.45l.576-.624z" fill="#262E2E" fill-rule="evenodd"/></symbol><symbol viewBox="0 0 9 6" id="chevron-up-dark"><title>Chevron_up@3x</title><path d="M4.37.71L.29 4.826l.576.612L4.37 1.874 7.874 5.45l.576-.624z" fill="#262E2E" fill-rule="evenodd"/></symbol><symbol viewBox="0 0 6 9" id="chevron-white"><path d="M5.22 4.848L1.104.768l-.612.576 3.564 3.504L.48 8.352l.624.576z" fill="#FFF" fill-rule="evenodd"/></symbol><symbol viewBox="0 0 31 30" id="close-black"><g stroke="#262E2E" fill="none" fill-rule="evenodd"><path d="M15.286 29.96C6.858 29.96 0 23.24 0 14.98 0 6.72 6.858 0 15.286 0s15.286 6.72 15.286 14.98c0 8.26-6.858 14.98-15.286 14.98"/><path d="M9.28 8.92l11.794 12.702M21.63 9.096L9.497 21.446" stroke-linecap="square"/></g></symbol><symbol viewBox="0 0 31 30" id="close-white"><g stroke="#FFF" fill="none" fill-rule="evenodd"><path d="M15.286 29.96C6.858 29.96 0 23.24 0 14.98 0 6.72 6.858 0 15.286 0s15.286 6.72 15.286 14.98c0 8.26-6.858 14.98-15.286 14.98"/><path d="M9.28 8.92l11.794 12.702M21.63 9.096L9.497 21.446" stroke-linecap="square"/></g></symbol><symbol viewBox="0 0 49 50" id="logo-dark"><title>Slice 1</title><defs><path id="ia" d="M36.95 37.24H0V.05h36.95z"/></defs><g transform="translate(12 6)" fill="none" fill-rule="evenodd"><g transform="translate(0 .71)"><mask id="ib" fill="#fff"><use xlink:href="#ia"/></mask><path d="M18.476 1.04C8.83 1.04.984 8.938.984 18.645c0 9.708 7.847 17.606 17.492 17.606 9.644 0 17.49-7.898 17.49-17.606 0-9.707-7.846-17.605-17.49-17.605m0 36.2C8.289 37.24 0 28.898 0 18.645 0 8.392 8.289.05 18.476.05 28.662.05 36.95 8.392 36.95 18.645c0 10.253-8.289 18.595-18.475 18.595" fill="#262E2E" mask="url(#ib)"/></g><path d="M9.21 20.398v-2.47l-.468-1.004v2.467c0 6.05-.674 6.613-1.69 7.127v.219h4.218v-.22c-1.01-.408-2.06-.551-2.06-6.119M7.725 12.193v.174c.524.317 1.238.473 2.157 2.8l5.07 11.57h.328l1.703-4.52-4.446-10.016-4.812-.008zM25.96 18.86v-.053c1.757-.428 3.544-1.408 3.544-3.343 0-2.819-2.563-3.25-5.608-3.25-1.217 0-2.453.003-3.441.006l-1.08 2.94v8.643c0 1.81-.406 2.44-.914 2.76v.19h4.174l.008-12.156c0-1.281.407-1.928 1.306-1.928 1.357 0 2.415.59 2.415 2.743 0 2.248-1.55 3.212-2.847 3.322l-.007.39c1.989.072 3.773 1.009 3.773 3.56 0 2.678-2.257 3.507-3.823 3.726l-.002.343c3.492.176 7.073-.679 7.073-4.129 0-2.472-2.404-3.453-4.571-3.764" fill="#262E2E"/></g></symbol><symbol viewBox="0 0 49 50" id="logo-white"><defs><path id="ja" d="M36.95 37.24H0V.05h36.95z"/></defs><g transform="translate(12 6)" fill="none" fill-rule="evenodd"><g transform="translate(0 .71)"><mask id="jb" fill="#fff"><use xlink:href="#ja"/></mask><path d="M18.476 1.04C8.83 1.04.984 8.938.984 18.645c0 9.708 7.847 17.606 17.492 17.606 9.644 0 17.49-7.898 17.49-17.606 0-9.707-7.846-17.605-17.49-17.605m0 36.2C8.289 37.24 0 28.898 0 18.645 0 8.392 8.289.05 18.476.05 28.662.05 36.95 8.392 36.95 18.645c0 10.253-8.289 18.595-18.475 18.595" fill="#FFF" mask="url(#jb)"/></g><path d="M9.21 20.398v-2.47l-.468-1.004v2.467c0 6.05-.674 6.613-1.69 7.127v.219h4.218v-.22c-1.01-.408-2.06-.551-2.06-6.119M7.725 12.193v.174c.524.317 1.238.473 2.157 2.8l5.07 11.57h.328l1.703-4.52-4.446-10.016-4.812-.008zM25.96 18.86v-.053c1.757-.428 3.544-1.408 3.544-3.343 0-2.819-2.563-3.25-5.608-3.25-1.217 0-2.453.003-3.441.006l-1.08 2.94v8.643c0 1.81-.406 2.44-.914 2.76v.19h4.174l.008-12.156c0-1.281.407-1.928 1.306-1.928 1.357 0 2.415.59 2.415 2.743 0 2.248-1.55 3.212-2.847 3.322l-.007.39c1.989.072 3.773 1.009 3.773 3.56 0 2.678-2.257 3.507-3.823 3.726l-.002.343c3.492.176 7.073-.679 7.073-4.129 0-2.472-2.404-3.453-4.571-3.764" fill="#FFF"/></g></symbol><symbol viewBox="0 0 31 30" id="map-view"><title>Map_View@3x</title><defs><path id="ka" d="M12.096 17.75H0V.01h12.096v17.74z"/></defs><g fill="none" fill-rule="evenodd"><path d="M15.286 29.96C6.858 29.96 0 23.24 0 14.98 0 6.72 6.858 0 15.286 0s15.286 6.72 15.286 14.98c0 8.26-6.858 14.98-15.286 14.98" stroke="#262E2E"/><g transform="translate(9.5 7)"><path d="M6.048 7.443a1.356 1.356 0 0 1-1.353-1.358c0-.75.606-1.358 1.353-1.358S7.4 5.335 7.4 6.085c-.001.75-.606 1.357-1.353 1.358m0-3.17a1.81 1.81 0 0 0-1.806 1.813 1.81 1.81 0 0 0 1.806 1.813 1.81 1.81 0 0 0 1.806-1.813 1.811 1.811 0 0 0-1.806-1.814" fill="#000"/><g transform="translate(0 .003)"><mask id="kb" fill="#fff"><use xlink:href="#ka"/></mask><path d="M6.048.01C2.709.014.004 2.73 0 6.082c0 1.373.972 3.69 2.89 6.885a70.206 70.206 0 0 0 2.852 4.358l.306.426.306-.426c.002-.003.053-.073.141-.199l-.792-1.18a68.47 68.47 0 0 1-2.17-3.376C1.717 9.537.756 7.297.756 6.081c0-2.934 2.37-5.313 5.292-5.314 2.923 0 5.293 2.379 5.293 5.313v.001c0 1.216-.96 3.461-2.778 6.49a69.554 69.554 0 0 1-2.02 3.154l.455.677a71.202 71.202 0 0 0 2.21-3.435c1.916-3.195 2.889-5.512 2.889-6.885C12.092 2.73 9.386.014 6.048.01" fill="#000" mask="url(#kb)"/></g></g></g></symbol><symbol viewBox="0 0 39 26" id="navicon-dark"><title>Slice 1</title><path d="M.432 5.315h20.995V3.007H.432v2.308zm0 17.555h20.995v-2.308H.432v2.308zm0-8.732h27.994v-2.307H.432v2.307z" fill="#262E2E" fill-rule="evenodd"/></symbol><symbol viewBox="0 0 39 26" id="navicon-white"><path d="M-.568 5.315h20.995V3.007H-.568v2.308zm0 17.555h20.995v-2.308H-.568v2.308zm0-8.732h27.994v-2.307H-.568v2.307z" fill="#fff" fill-rule="evenodd"/></symbol><symbol viewBox="0 0 31 30" id="page_scroll"><title>Page_Scroll_white@3x</title><g fill="none" fill-rule="evenodd"><path d="M15.286 29.96C6.858 29.96 0 23.24 0 14.98 0 6.72 6.858 0 15.286 0s15.286 6.72 15.286 14.98c0 8.26-6.858 14.98-15.286 14.98" stroke="#FFF"/><g transform="rotate(90 7 14)" fill="#FFF"><path d="M0 5.939h14.91V4.89H0z"/><path d="M10.27 0l-.708.74 4.661 4.883.707-.74zM9.562 10.135l.707.74 2.982-3.123-.707-.74z"/></g><g transform="rotate(90 7 14)" fill="#FFF"><path d="M0 5.939h14.91V4.89H0z"/><path d="M10.27 0l-.708.74 4.661 4.883.707-.74zM9.562 10.135l.707.74 2.982-3.123-.707-.74z"/></g></g></symbol><symbol viewBox="0 0 29 23" id="quote-bottom"><title>Quote_bottom@3x</title><text transform="translate(-617 -2389)" fill="#262E2E" fill-rule="evenodd" font-family="Cardo-Regular, Cardo" font-size="90"><tspan x="612" y="2442">”</tspan></text></symbol><symbol viewBox="0 0 28 23" id="quote-top"><title>Quote_Top@3x</title><text transform="translate(-614 -2231)" fill="#262E2E" fill-rule="evenodd" font-family="Cardo-Regular, Cardo" font-size="90"><tspan x="612" y="2284">“</tspan></text></symbol><symbol viewBox="0 0 31 30" id="thumb-view"><title>Thumb_view@3x</title><defs><path id="qa" d="M4.5 0h14.423v9H4.5z"/><mask id="qb" x="0" y="0" width="14.423" height="9" fill="#fff"><use xlink:href="#qa"/></mask></defs><g fill="none" fill-rule="evenodd"><path d="M15.286 29.96C6.858 29.96 0 23.24 0 14.98 0 6.72 6.858 0 15.286 0s15.286 6.72 15.286 14.98c0 8.26-6.858 14.98-15.286 14.98" stroke="#262E2E"/><g transform="translate(3.5 10.003)"><path fill="#FFF" d="M0 2h2v11.003H0z"/><path fill="#FFF" d="M1 11h7v2.003H1zM1 1h7v2.003H1zM15 11h7.846v3.428H15z"/><path fill="#FFF" d="M18 12h4v3.428h-4z"/><use stroke="#262E2E" mask="url(#qb)" stroke-width="1.6" xlink:href="#qa"/></g></g></symbol><symbol viewBox="0 0 108 44" id="xl-logo-dark"><title>MB_Logo_black</title><defs><path id="ra" d="M.838 9h13.329V.283H.837z"/></defs><g fill="none" fill-rule="evenodd"><path d="M55.486 24.76a2.14 2.14 0 0 1-2.138-2.138 2.14 2.14 0 0 1 2.138-2.138 2.14 2.14 0 0 1 2.138 2.138 2.14 2.14 0 0 1-2.138 2.138M58.1 21.261c0-.742-.173-1.18-.641-2.168-.441-.929-4.772-10.764-4.772-10.764-.69-1.547-1.165-2.023-1.99-2.243v-.484h6.627l-.006.514c-.545.233-.883.78-.512 1.724l3.558 8.347-2.112 5.125-.152-.05zm3.335-9.194c1.282-3.485 1.035-5.425-.63-5.915v-.55h5.229v.55c-1.508.411-2.953 3.426-4.072 6.154l-.775 1.907-.283-.71.53-1.436zM84.695 16.511c0 1.36.352 2.057.945 2.432v.247h-6.12v-.222c.602-.406 1.083-1.119 1.083-2.694v-6.53c0-1.574-.481-2.288-1.082-2.694v-.222L84.48 5.1l.215.222v11.19zM45.435 17.07c-1.703 0-3.61-1.894-3.61-5.06 0-2.771 1.063-6.165 2.979-6.165 1.083 0 1.76.988 1.76 3.06 0 1.196-.512 1.432-1.861 1.432h-1.83l-.05.76 7.566-.017c0-3.422-1.915-5.848-5.585-5.848-4.914 0-7.016 3.673-7.016 7.184 0 4.35 2.857 7.146 6.23 7.146 3.83 0 5.66-3.07 6.234-4.25l-.414-.365c-1.35 1.415-2.5 2.123-4.403 2.123M37.279.889V.667h-4.63l-1.394 3.969-.012 11.638c0 1.575-.538 2.288-1.211 2.695v.222h7.08v-.248c-.664-.375-1.058-1.073-1.058-2.432l.014-12.928c0-1.574.538-2.288 1.21-2.694M22.507.64L16.326.627v.223c.674.406 1.59.604 2.772 3.572l6.51 14.767h.423l2.035-5.766L22.506.64zM87.94 9.878a2.14 2.14 0 0 1-2.138-2.138 2.14 2.14 0 0 1 2.138-2.138 2.14 2.14 0 0 1 2.138 2.138 2.14 2.14 0 0 1-2.138 2.138M18.386 11.101V7.948l-.6-1.282v3.15c0 7.72-.865 8.44-2.173 9.095v.28h5.42v-.28c-1.299-.522-2.647-.704-2.647-7.81M73.21 17.07c-1.703 0-3.609-1.894-3.609-5.06 0-2.771 1.062-6.165 2.978-6.165 1.083 0 1.761.988 1.761 3.06 0 1.196-.513 1.432-1.862 1.432h-1.83l-.049.76 7.565-.017c0-3.422-1.915-5.848-5.585-5.848-4.914 0-7.016 3.673-7.016 7.184 0 4.35 2.857 7.146 6.23 7.146 3.831 0 5.66-3.07 6.234-4.25l-.414-.365c-1.35 1.415-2.499 2.123-4.403 2.123" fill="#262E2E"/><g transform="translate(42 34.606)"><mask id="rb" fill="#fff"><use xlink:href="#ra"/></mask><path d="M2.907.283l.54.405c-.72 1.214-.365 2.466 1.64 2.466h5.385c2.728 0 3.695 1.28 3.695 2.61 0 1.158-.571 2.44-.993 3.236h-.657c.166-1.454-.097-1.959-2.154-1.959h-5.77C2.278 7.041.839 5.837.839 4.173c0-1.64.967-2.99 2.069-3.89" fill="#262E2E" mask="url(#rb)"/></g><path d="M49.403 34.989c-1.138 0-1.788-1.09-1.788-5.268 0-3.916.515-4.884 1.788-4.884 1.273 0 1.788.968 1.788 4.884 0 4.179-.65 5.268-1.788 5.268m0-10.898c-3.679 0-6.148 2.434-6.148 6.013 0 3.459 3.01 5.63 6.148 5.63 3.14 0 6.148-2.171 6.148-5.63 0-3.58-2.469-6.013-6.148-6.013M87.503 27.058c0-1.712-1.199-2.22-2.436-2.063l-.188-.512s1.314-.392 2.441-.392c3.418 0 4.428 1.736 4.428 4.985v6.541c0 1.03.39 1.42 1.185 1.42l.1.511c-.572.298-1.738.681-2.604.681-.92 0-1.749-.186-2.179-.557-.43-.37-.747-.938-.747-1.974v-8.64zm-.554 9.922c-.939.75-2.314 1.25-3.115 1.25-1.587 0-3.45-.864-3.45-3.005 0-2.742 3.591-4.448 7.157-5.373l.194.63c-1.526.725-3.626 2.251-3.626 4.2 0 1.82 1.637 2.005 2.691 1.815l.15.483zM74.565 28.07v7.46c-.076 1.296-.52 1.928-1.066 2.298v.222h6.12v-.248c-.594-.375-.946-1.073-.946-2.432h-.003v-6.844c0-2.379-.9-4.435-3.72-4.435h-.164c-1.548 0-3.717 1.406-3.717 1.406l.244.442c2.198-.955 3.252.073 3.252 2.131M67.315 24.09c-1.549 0-3.718 1.407-3.718 1.407l.261.476c1.81-.753 3.086-.236 3.086 2.519v6.642h-.004c0 1.574-.48 2.287-1.08 2.694v.222h6.118v-.248c-.583-.368-.93-1.053-.943-2.366v-6.91c0-2.986-1.146-4.435-3.72-4.435M10.15 27.971c2.312-.523 4.725-1.776 4.725-4.307 0-3.598-3.445-4.149-7.358-4.149-3.422 0-6.828.015-6.828.015v.222c.652.407 1.173 1.003 1.173 2.577v11.977c0 2.31-.521 3.115-1.173 3.522v.243h5.36l.013-15.515c0-1.635.369-2.46 1.525-2.46 1.955 0 3.254.752 3.254 3.5 0 2.87-1.99 4.101-3.658 4.24l-.008.497c2.553.094 4.847 1.29 4.847 4.545 0 3.416-2.901 4.476-4.911 4.754l-.004.44c4.486.224 9.085-.867 9.085-5.27 0-3.219-3.213-4.459-6.041-4.83M55.486 24.76a2.14 2.14 0 0 1-2.138-2.138 2.14 2.14 0 0 1 2.138-2.138 2.14 2.14 0 0 1 2.138 2.138 2.14 2.14 0 0 1-2.138 2.138M83.213 29.462a2.14 2.14 0 0 1-2.138-2.139 2.14 2.14 0 0 1 2.138-2.137 2.14 2.14 0 0 1 2.137 2.137 2.14 2.14 0 0 1-2.137 2.139M36.753 35.37c0 1.36.352 2.058.945 2.433v.247H31.58v-.222c.601-.406 1.082-1.12 1.082-2.694v-6.53c0-1.574-.48-2.288-1.082-2.694v-.222l4.96-1.73.214.223v11.19zM39.999 28.737a2.14 2.14 0 0 1-2.138-2.138 2.14 2.14 0 0 1 2.138-2.138 2.14 2.14 0 0 1 2.138 2.138 2.14 2.14 0 0 1-2.138 2.138M25.268 35.93c-1.703 0-3.609-1.895-3.609-5.06 0-2.772 1.062-6.166 2.978-6.166 1.083 0 1.761.988 1.761 3.06 0 1.197-.513 1.432-1.862 1.432h-1.829l-.05.76 7.565-.017c0-3.422-1.915-5.848-5.585-5.848-4.914 0-7.016 3.673-7.016 7.184 0 4.351 2.857 7.146 6.23 7.146 3.831 0 5.66-3.07 6.234-4.25l-.414-.365c-1.35 1.415-2.499 2.123-4.403 2.123M63.018 35.37c0 1.36.352 2.058.945 2.433v.247h-6.12v-.222c.602-.406 1.083-1.12 1.083-2.694v-6.53c0-1.574-.481-2.288-1.082-2.694v-.222l4.959-1.73.215.223v11.19zM99.041 35.37c0 1.36.352 2.058.945 2.433v.247h-6.119v-.222c.601-.406 1.082-1.12 1.082-2.694v-6.53c0-1.574-.481-2.288-1.082-2.694v-.222l4.959-1.73.215.223v11.19zM102.965 28.07v7.46c-.076 1.296-.519 1.928-1.066 2.298v.222h6.12v-.248c-.594-.375-.946-1.073-.946-2.432h-.003v-6.844c0-2.379-.899-4.435-3.72-4.435h-.01c-1.549 0-3.87 1.406-3.87 1.406l.243.442c2.198-.955 3.252.073 3.252 2.131" fill="#262E2E"/></g></symbol><symbol viewBox="0 0 108 44" id="xl-logo-white"><defs><path id="sa" d="M.838 9h13.329V.283H.837z"/></defs><g fill="none" fill-rule="evenodd"><path d="M55.486 24.76a2.14 2.14 0 0 1-2.138-2.138 2.14 2.14 0 0 1 2.138-2.138 2.14 2.14 0 0 1 2.138 2.138 2.14 2.14 0 0 1-2.138 2.138" fill="#262E2E"/><path d="M58.1 21.261c0-.742-.173-1.18-.641-2.168-.441-.929-4.772-10.764-4.772-10.764-.69-1.547-1.165-2.023-1.99-2.243v-.484h6.627l-.006.514c-.545.233-.883.78-.512 1.724l3.558 8.347-2.112 5.125-.152-.05zm3.335-9.194c1.282-3.485 1.035-5.425-.63-5.915v-.55h5.229v.55c-1.508.411-2.953 3.426-4.072 6.154l-.775 1.907-.283-.71.53-1.436zM84.695 16.511c0 1.36.352 2.057.945 2.432v.247h-6.12v-.222c.602-.406 1.083-1.119 1.083-2.694v-6.53c0-1.574-.481-2.288-1.082-2.694v-.222L84.48 5.1l.215.222v11.19zM45.435 17.07c-1.703 0-3.61-1.894-3.61-5.06 0-2.771 1.063-6.165 2.979-6.165 1.083 0 1.76.988 1.76 3.06 0 1.196-.512 1.432-1.861 1.432h-1.83l-.05.76 7.566-.017c0-3.422-1.915-5.848-5.585-5.848-4.914 0-7.016 3.673-7.016 7.184 0 4.35 2.857 7.146 6.23 7.146 3.83 0 5.66-3.07 6.234-4.25l-.414-.365c-1.35 1.415-2.5 2.123-4.403 2.123M37.279.889V.667h-4.63l-1.394 3.969-.012 11.638c0 1.575-.538 2.288-1.211 2.695v.222h7.08v-.248c-.664-.375-1.058-1.073-1.058-2.432l.014-12.928c0-1.574.538-2.288 1.21-2.694M22.507.64L16.326.627v.223c.674.406 1.59.604 2.772 3.572l6.51 14.767h.423l2.035-5.766L22.506.64zM87.94 9.878a2.14 2.14 0 0 1-2.138-2.138 2.14 2.14 0 0 1 2.138-2.138 2.14 2.14 0 0 1 2.138 2.138 2.14 2.14 0 0 1-2.138 2.138M18.386 11.101V7.948l-.6-1.282v3.15c0 7.72-.865 8.44-2.173 9.095v.28h5.42v-.28c-1.299-.522-2.647-.704-2.647-7.81M73.21 17.07c-1.703 0-3.609-1.894-3.609-5.06 0-2.771 1.062-6.165 2.978-6.165 1.083 0 1.761.988 1.761 3.06 0 1.196-.513 1.432-1.862 1.432h-1.83l-.049.76 7.565-.017c0-3.422-1.915-5.848-5.585-5.848-4.914 0-7.016 3.673-7.016 7.184 0 4.35 2.857 7.146 6.23 7.146 3.831 0 5.66-3.07 6.234-4.25l-.414-.365c-1.35 1.415-2.499 2.123-4.403 2.123" fill="#FFF"/><g transform="translate(42 34.606)"><mask id="sb" fill="#fff"><use xlink:href="#sa"/></mask><path d="M2.907.283l.54.405c-.72 1.214-.365 2.466 1.64 2.466h5.385c2.728 0 3.695 1.28 3.695 2.61 0 1.158-.571 2.44-.993 3.236h-.657c.166-1.454-.097-1.959-2.154-1.959h-5.77C2.278 7.041.839 5.837.839 4.173c0-1.64.967-2.99 2.069-3.89" fill="#FFF" mask="url(#sb)"/></g><path d="M49.403 34.989c-1.138 0-1.788-1.09-1.788-5.268 0-3.916.515-4.884 1.788-4.884 1.273 0 1.788.968 1.788 4.884 0 4.179-.65 5.268-1.788 5.268m0-10.898c-3.679 0-6.148 2.434-6.148 6.013 0 3.459 3.01 5.63 6.148 5.63 3.14 0 6.148-2.171 6.148-5.63 0-3.58-2.469-6.013-6.148-6.013M87.503 27.058c0-1.712-1.199-2.22-2.436-2.063l-.188-.512s1.314-.392 2.441-.392c3.418 0 4.428 1.736 4.428 4.985v6.541c0 1.03.39 1.42 1.185 1.42l.1.511c-.572.298-1.738.681-2.604.681-.92 0-1.749-.186-2.179-.557-.43-.37-.747-.938-.747-1.974v-8.64zm-.554 9.922c-.939.75-2.314 1.25-3.115 1.25-1.587 0-3.45-.864-3.45-3.005 0-2.742 3.591-4.448 7.157-5.373l.194.63c-1.526.725-3.626 2.251-3.626 4.2 0 1.82 1.637 2.005 2.691 1.815l.15.483zM74.565 28.07v7.46c-.076 1.296-.52 1.928-1.066 2.298v.222h6.12v-.248c-.594-.375-.946-1.073-.946-2.432h-.003v-6.844c0-2.379-.9-4.435-3.72-4.435h-.164c-1.548 0-3.717 1.406-3.717 1.406l.244.442c2.198-.955 3.252.073 3.252 2.131M67.315 24.09c-1.549 0-3.718 1.407-3.718 1.407l.261.476c1.81-.753 3.086-.236 3.086 2.519v6.642h-.004c0 1.574-.48 2.287-1.08 2.694v.222h6.118v-.248c-.583-.368-.93-1.053-.943-2.366v-6.91c0-2.986-1.146-4.435-3.72-4.435M10.15 27.971c2.312-.523 4.725-1.776 4.725-4.307 0-3.598-3.445-4.149-7.358-4.149-3.422 0-6.828.015-6.828.015v.222c.652.407 1.173 1.003 1.173 2.577v11.977c0 2.31-.521 3.115-1.173 3.522v.243h5.36l.013-15.515c0-1.635.369-2.46 1.525-2.46 1.955 0 3.254.752 3.254 3.5 0 2.87-1.99 4.101-3.658 4.24l-.008.497c2.553.094 4.847 1.29 4.847 4.545 0 3.416-2.901 4.476-4.911 4.754l-.004.44c4.486.224 9.085-.867 9.085-5.27 0-3.219-3.213-4.459-6.041-4.83M55.486 24.76a2.14 2.14 0 0 1-2.138-2.138 2.14 2.14 0 0 1 2.138-2.138 2.14 2.14 0 0 1 2.138 2.138 2.14 2.14 0 0 1-2.138 2.138M83.213 29.462a2.14 2.14 0 0 1-2.138-2.139 2.14 2.14 0 0 1 2.138-2.137 2.14 2.14 0 0 1 2.137 2.137 2.14 2.14 0 0 1-2.137 2.139M36.753 35.37c0 1.36.352 2.058.945 2.433v.247H31.58v-.222c.601-.406 1.082-1.12 1.082-2.694v-6.53c0-1.574-.48-2.288-1.082-2.694v-.222l4.96-1.73.214.223v11.19zM39.999 28.737a2.14 2.14 0 0 1-2.138-2.138 2.14 2.14 0 0 1 2.138-2.138 2.14 2.14 0 0 1 2.138 2.138 2.14 2.14 0 0 1-2.138 2.138M25.268 35.93c-1.703 0-3.609-1.895-3.609-5.06 0-2.772 1.062-6.166 2.978-6.166 1.083 0 1.761.988 1.761 3.06 0 1.197-.513 1.432-1.862 1.432h-1.829l-.05.76 7.565-.017c0-3.422-1.915-5.848-5.585-5.848-4.914 0-7.016 3.673-7.016 7.184 0 4.351 2.857 7.146 6.23 7.146 3.831 0 5.66-3.07 6.234-4.25l-.414-.365c-1.35 1.415-2.499 2.123-4.403 2.123M63.018 35.37c0 1.36.352 2.058.945 2.433v.247h-6.12v-.222c.602-.406 1.083-1.12 1.083-2.694v-6.53c0-1.574-.481-2.288-1.082-2.694v-.222l4.959-1.73.215.223v11.19zM99.041 35.37c0 1.36.352 2.058.945 2.433v.247h-6.119v-.222c.601-.406 1.082-1.12 1.082-2.694v-6.53c0-1.574-.481-2.288-1.082-2.694v-.222l4.959-1.73.215.223v11.19zM102.965 28.07v7.46c-.076 1.296-.519 1.928-1.066 2.298v.222h6.12v-.248c-.594-.375-.946-1.073-.946-2.432h-.003v-6.844c0-2.379-.899-4.435-3.72-4.435h-.01c-1.549 0-3.87 1.406-3.87 1.406l.243.442c2.198-.955 3.252.073 3.252 2.131" fill="#FFF"/></g></symbol></svg>