<?xml version="1.0" encoding="UTF-8" standalone="no"?><svg xmlns="http://www.w3.org/2000/svg" xmlns:xlink="http://www.w3.org/1999/xlink"><symbol viewBox="0 0 9 6" id="chevron-down"><path d="M4.37 5.45l4.08-4.116-.576-.612L4.37 4.286.866.71l-.576.624z" fill="none" fill-rule="evenodd"/></symbol><symbol viewBox="0 0 9 6" id="chevron-up"><path d="M4.37.71L.29 4.826l.576.612L4.37 1.874 7.874 5.45l.576-.624z" fill="#262E2E" fill-rule="evenodd"/></symbol><symbol viewBox="0 0 6 9" id="chevron-white"><path d="M5.22 4.848L1.104.768l-.612.576 3.564 3.504L.48 8.352l.624.576z" fill="#FFF" fill-rule="evenodd"/></symbol><symbol viewBox="0 0 31 30" id="close-black"><g stroke="#262E2E" fill="none" fill-rule="evenodd"><path d="M15.286 29.96C6.858 29.96 0 23.24 0 14.98 0 6.72 6.858 0 15.286 0s15.286 6.72 15.286 14.98c0 8.26-6.858 14.98-15.286 14.98"/><path d="M9.28 8.92l11.794 12.702M21.63 9.096L9.497 21.446" stroke-linecap="square"/></g></symbol><symbol viewBox="0 0 31 30" id="close-white"><g stroke="#FFF" fill="none" fill-rule="evenodd"><path d="M15.286 29.96C6.858 29.96 0 23.24 0 14.98 0 6.72 6.858 0 15.286 0s15.286 6.72 15.286 14.98c0 8.26-6.858 14.98-15.286 14.98"/><path d="M9.28 8.92l11.794 12.702M21.63 9.096L9.497 21.446" stroke-linecap="square"/></g></symbol><symbol viewBox="0 0 49 50" id="logo-white"><defs><path id="fa" d="M36.95 37.24H0V.05h36.95z"/></defs><g transform="translate(12 6)" fill="none" fill-rule="evenodd"><g transform="translate(0 .71)"><mask id="fb" fill="#fff"><use xlink:href="#fa"/></mask><path d="M18.476 1.04C8.83 1.04.984 8.938.984 18.645c0 9.708 7.847 17.606 17.492 17.606 9.644 0 17.49-7.898 17.49-17.606 0-9.707-7.846-17.605-17.49-17.605m0 36.2C8.289 37.24 0 28.898 0 18.645 0 8.392 8.289.05 18.476.05 28.662.05 36.95 8.392 36.95 18.645c0 10.253-8.289 18.595-18.475 18.595" fill="#FFF" mask="url(#fb)"/></g><path d="M9.21 20.398v-2.47l-.468-1.004v2.467c0 6.05-.674 6.613-1.69 7.127v.219h4.218v-.22c-1.01-.408-2.06-.551-2.06-6.119M7.725 12.193v.174c.524.317 1.238.473 2.157 2.8l5.07 11.57h.328l1.703-4.52-4.446-10.016-4.812-.008zM25.96 18.86v-.053c1.757-.428 3.544-1.408 3.544-3.343 0-2.819-2.563-3.25-5.608-3.25-1.217 0-2.453.003-3.441.006l-1.08 2.94v8.643c0 1.81-.406 2.44-.914 2.76v.19h4.174l.008-12.156c0-1.281.407-1.928 1.306-1.928 1.357 0 2.415.59 2.415 2.743 0 2.248-1.55 3.212-2.847 3.322l-.007.39c1.989.072 3.773 1.009 3.773 3.56 0 2.678-2.257 3.507-3.823 3.726l-.002.343c3.492.176 7.073-.679 7.073-4.129 0-2.472-2.404-3.453-4.571-3.764" fill="#FFF"/></g></symbol><symbol viewBox="0 0 39 26" id="navicon-white"><path d="M-.568 5.315h20.995V3.007H-.568v2.308zm0 17.555h20.995v-2.308H-.568v2.308zm0-8.732h27.994v-2.307H-.568v2.307z" fill="#fff" fill-rule="evenodd"/></symbol><symbol viewBox="0 0 31 30" id="page-scroll"><g fill="none" fill-rule="evenodd"><path d="M15.286 29.96C6.858 29.96 0 23.24 0 14.98 0 6.72 6.858 0 15.286 0s15.286 6.72 15.286 14.98c0 8.26-6.858 14.98-15.286 14.98" stroke="#262E2E"/><g transform="rotate(90 7 14)" fill="#FFF"><path d="M0 5.939h14.91V4.89H0z"/><path d="M10.27 0l-.708.74 4.661 4.883.707-.74zM9.562 10.135l.707.74 2.982-3.123-.707-.74z"/></g><g transform="rotate(90 7 14)" fill="#262E2E"><path d="M0 5.939h14.91V4.89H0z"/><path d="M10.27 0l-.708.74 4.661 4.883.707-.74zM9.562 10.135l.707.74 2.982-3.123-.707-.74z"/></g><g transform="rotate(90 7 14)" fill="#262E2E"><path d="M0 5.939h14.91V4.89H0z"/><path d="M10.27 0l-.708.74 4.661 4.883.707-.74zM9.562 10.135l.707.74 2.982-3.123-.707-.74z"/></g></g></symbol><symbol viewBox="0 0 31 30" id="page-scroll-white"><g fill="none" fill-rule="evenodd"><path d="M15.286 29.96C6.858 29.96 0 23.24 0 14.98 0 6.72 6.858 0 15.286 0s15.286 6.72 15.286 14.98c0 8.26-6.858 14.98-15.286 14.98" stroke="#FFF"/><g transform="rotate(90 7 14)" fill="#FFF"><path d="M0 5.939h14.91V4.89H0z"/><path d="M10.27 0l-.708.74 4.661 4.883.707-.74zM9.562 10.135l.707.74 2.982-3.123-.707-.74z"/></g><g transform="rotate(90 7 14)" fill="#FFF"><path d="M0 5.939h14.91V4.89H0z"/><path d="M10.27 0l-.708.74 4.661 4.883.707-.74zM9.562 10.135l.707.74 2.982-3.123-.707-.74z"/></g></g></symbol></svg>