<?xml version="1.0" encoding="UTF-8" standalone="no"?><svg xmlns="http://www.w3.org/2000/svg" xmlns:xlink="http://www.w3.org/1999/xlink"><symbol viewBox="0 0 9 6" id="chevron-down"><path d="M4.37 5.45l4.08-4.116-.576-.612L4.37 4.286.866.71l-.576.624z" fill="none" fill-rule="evenodd"/></symbol><symbol viewBox="0 0 9 6" id="chevron-up"><path d="M4.37.71L.29 4.826l.576.612L4.37 1.874 7.874 5.45l.576-.624z" fill="#262E2E" fill-rule="evenodd"/></symbol><symbol viewBox="0 0 6 9" id="chevron-white"><path d="M5.22 4.848L1.104.768l-.612.576 3.564 3.504L.48 8.352l.624.576z" fill="#FFF" fill-rule="evenodd"/></symbol><symbol viewBox="0 0 31 30" id="close-black"><g stroke="#262E2E" fill="none" fill-rule="evenodd"><path d="M15.286 29.96C6.858 29.96 0 23.24 0 14.98 0 6.72 6.858 0 15.286 0s15.286 6.72 15.286 14.98c0 8.26-6.858 14.98-15.286 14.98"/><path d="M9.28 8.92l11.794 12.702M21.63 9.096L9.497 21.446" stroke-linecap="square"/></g></symbol><symbol viewBox="0 0 31 30" id="close-white"><g stroke="#FFF" fill="none" fill-rule="evenodd"><path d="M15.286 29.96C6.858 29.96 0 23.24 0 14.98 0 6.72 6.858 0 15.286 0s15.286 6.72 15.286 14.98c0 8.26-6.858 14.98-15.286 14.98"/><path d="M9.28 8.92l11.794 12.702M21.63 9.096L9.497 21.446" stroke-linecap="square"/></g></symbol><symbol viewBox="0 0 39 26" id="navicon-white"><path d="M-.568 5.315h20.995V3.007H-.568v2.308zm0 17.555h20.995v-2.308H-.568v2.308zm0-8.732h27.994v-2.307H-.568v2.307z" fill="#ffffff" fill-rule="evenodd"/></symbol><symbol viewBox="0 0 31 30" id="page-scroll"><g fill="none" fill-rule="evenodd"><path d="M15.286 29.96C6.858 29.96 0 23.24 0 14.98 0 6.72 6.858 0 15.286 0s15.286 6.72 15.286 14.98c0 8.26-6.858 14.98-15.286 14.98" stroke="#262E2E"/><g transform="rotate(90 7 14)" fill="#FFF"><path d="M0 5.939h14.91V4.89H0z"/><path d="M10.27 0l-.708.74 4.661 4.883.707-.74zM9.562 10.135l.707.74 2.982-3.123-.707-.74z"/></g><g transform="rotate(90 7 14)" fill="#262E2E"><path d="M0 5.939h14.91V4.89H0z"/><path d="M10.27 0l-.708.74 4.661 4.883.707-.74zM9.562 10.135l.707.74 2.982-3.123-.707-.74z"/></g><g transform="rotate(90 7 14)" fill="#262E2E"><path d="M0 5.939h14.91V4.89H0z"/><path d="M10.27 0l-.708.74 4.661 4.883.707-.74zM9.562 10.135l.707.74 2.982-3.123-.707-.74z"/></g></g></symbol><symbol viewBox="0 0 31 30" id="page-scroll-white"><g fill="none" fill-rule="evenodd"><path d="M15.286 29.96C6.858 29.96 0 23.24 0 14.98 0 6.72 6.858 0 15.286 0s15.286 6.72 15.286 14.98c0 8.26-6.858 14.98-15.286 14.98" stroke="#FFF"/><g transform="rotate(90 7 14)" fill="#FFF"><path d="M0 5.939h14.91V4.89H0z"/><path d="M10.27 0l-.708.74 4.661 4.883.707-.74zM9.562 10.135l.707.74 2.982-3.123-.707-.74z"/></g><g transform="rotate(90 7 14)" fill="#FFF"><path d="M0 5.939h14.91V4.89H0z"/><path d="M10.27 0l-.708.74 4.661 4.883.707-.74zM9.562 10.135l.707.74 2.982-3.123-.707-.74z"/></g></g></symbol></svg>