<?xml version="1.0" encoding="UTF-8" standalone="no"?>
<svg width="31px" height="30px" viewBox="0 0 31 30" version="1.1" xmlns="http://www.w3.org/2000/svg" xmlns:xlink="http://www.w3.org/1999/xlink">
    <!-- Generator: Sketch 39.1 (31720) - http://www.bohemiancoding.com/sketch -->
    <title>Thumb_view@3x</title>
    <desc>Created with Sketch.</desc>
    <defs>
        <rect id="path-1" x="4.5" y="0" width="14.4228473" height="9"></rect>
        <mask id="mask-2" maskContentUnits="userSpaceOnUse" maskUnits="objectBoundingBox" x="0" y="0" width="14.4228473" height="9" fill="white">
            <use xlink:href="#path-1"></use>
        </mask>
    </defs>
    <g id="Symbols" stroke="none" stroke-width="1" fill="none" fill-rule="evenodd">
        <g id="Thumb_view">
            <g id="Close" stroke="#262E2E">
                <path d="M15.2861308,29.9595918 C6.8577676,29.9595918 0,23.2395918 0,14.9797959 C0,6.72 6.8577676,0 15.2861308,0 C23.7138692,0 30.5716368,6.72 30.5716368,14.9797959 C30.5716368,23.2395918 23.7138692,29.9595918 15.2861308,29.9595918" id="Fill-1"></path>
            </g>
            <g id="Page-1" transform="translate(4.500000, 9.000000)"></g>
            <g id="PIC" transform="translate(3.500000, 10.000000)">
                <g id="Group-5" transform="translate(0.000000, 0.002943)">
                    <rect id="Rectangle-3-Copy-3" fill="#FFFFFF" x="0" y="2" width="2" height="11.0029428"></rect>
                    <rect id="Rectangle-3-Copy-4" fill="#FFFFFF" x="1" y="11" width="7" height="2.00294283"></rect>
                    <rect id="Rectangle-3-Copy-5" fill="#FFFFFF" x="1" y="1" width="7" height="2.00294283"></rect>
                    <rect id="Rectangle-3-Copy" fill="#FFFFFF" x="15" y="11" width="7.84569452" height="3.42770802"></rect>
                    <rect id="Rectangle-3-Copy-2" fill="#FFFFFF" x="18" y="12" width="4" height="3.42770802"></rect>
                    <use id="Rectangle" stroke="#262E2E" mask="url(#mask-2)" stroke-width="1.6" xlink:href="#path-1"></use>
                </g>
            </g>
        </g>
    </g>
</svg>