<?xml version="1.0" encoding="UTF-8" standalone="no"?>
<svg width="108px" height="44px" viewBox="0 0 108 44" version="1.1" xmlns="http://www.w3.org/2000/svg" xmlns:xlink="http://www.w3.org/1999/xlink">
    <!-- Generator: Sketch 39.1 (31720) - http://www.bohemiancoding.com/sketch -->
    <title>MB_Logo_black</title>
    <desc>Created with Sketch.</desc>
    <defs>
        <polygon id="path-1" points="0.8377 9 14.1667 9 14.1667 0.2832 0.8377 0.2832"></polygon>
    </defs>
    <g id="Symbols" stroke="none" stroke-width="1" fill="none" fill-rule="evenodd">
        <g id="Core-Nav" transform="translate(-1064.000000, 0.000000)">
            <g id="Stacked-Logo">
                <g transform="translate(1064.000000, 0.000000)">
                    <g>
                        <path d="M55.4858,24.7598 C54.3068,24.7598 53.3478,23.8008 53.3478,22.6218 C53.3478,21.4438 54.3068,20.4838 55.4858,20.4838 C56.6648,20.4838 57.6238,21.4438 57.6238,22.6218 C57.6238,23.8008 56.6648,24.7598 55.4858,24.7598" id="Fill-1" fill="#262E2E"></path>
                        <path d="M58.0996,21.2613 C58.0996,20.5193 57.9266,20.0803 57.4586,19.0933 C57.0176,18.1643 52.6866,8.3293 52.6866,8.3293 C51.9976,6.7823 51.5216,6.3063 50.6966,6.0863 L50.6966,5.6023 L57.3236,5.6023 L57.3176,6.1163 C56.7726,6.3493 56.4346,6.8963 56.8056,7.8403 L60.3636,16.1873 L58.2516,21.3123 L58.0996,21.2613 Z M61.4346,12.0673 C62.7166,8.5823 62.4696,6.6423 60.8056,6.1523 L60.8056,5.6023 L66.0336,5.6023 L66.0336,6.1523 C64.5256,6.5633 63.0806,9.5783 61.9616,12.3063 L61.1866,14.2133 L60.9036,13.5033 L61.4346,12.0673 Z" id="Fill-3" fill="#262E2E"></path>
                        <path d="M84.6948,16.5113 C84.6948,17.8703 85.0468,18.5683 85.6398,18.9433 L85.6398,19.1903 L79.5208,19.1903 L79.5208,18.9683 C80.1218,18.5623 80.6028,17.8493 80.6028,16.2743 L80.6028,9.7443 C80.6028,8.1703 80.1218,7.4563 79.5208,7.0503 L79.5208,6.8283 L84.4798,5.0993 L84.6948,5.3213 L84.6948,16.5113 Z" id="Fill-5" fill="#262E2E"></path>
                        <path d="M45.4346,17.0699 C43.7316,17.0699 41.8256,15.1759 41.8256,12.0109 C41.8256,9.2389 42.8876,5.8449 44.8036,5.8449 C45.8866,5.8449 46.5646,6.8329 46.5646,8.9049 C46.5646,10.1009 46.0516,10.3369 44.7026,10.3369 L42.8736,10.3369 L42.8236,11.0969 L50.3886,11.0799 C50.3886,7.6579 48.4736,5.2319 44.8036,5.2319 C39.8896,5.2319 37.7876,8.9049 37.7876,12.4159 C37.7876,16.7669 40.6446,19.5619 44.0176,19.5619 C47.8486,19.5619 49.6776,16.4919 50.2516,15.3119 L49.8376,14.9469 C48.4876,16.3619 47.3386,17.0699 45.4346,17.0699" id="Fill-7" fill="#262E2E"></path>
                        <path d="M37.2788,0.8887 L37.2788,0.6667 L32.6488,0.6667 L31.2548,4.6357 L31.2428,16.2737 C31.2428,17.8487 30.7048,18.5617 30.0318,18.9687 L30.0318,19.1907 L37.1128,19.1907 L37.1128,18.9427 C36.4478,18.5677 36.0538,17.8697 36.0538,16.5107 L36.0678,3.5827 C36.0678,2.0087 36.6058,1.2947 37.2788,0.8887" id="Fill-9" fill="#262E2E"></path>
                        <path d="M22.5068,0.6392 L16.3258,0.6282 L16.3258,0.8512 C16.9998,1.2572 17.9168,1.4552 19.0978,4.4232 L25.6088,19.1902 L26.0308,19.1902 L28.0658,13.4242 L22.5068,0.6392 Z" id="Fill-11" fill="#262E2E"></path>
                        <path d="M87.9404,9.878 C86.7614,9.878 85.8024,8.919 85.8024,7.74 C85.8024,6.561 86.7614,5.602 87.9404,5.602 C89.1194,5.602 90.0784,6.561 90.0784,7.74 C90.0784,8.919 89.1194,9.878 87.9404,9.878" id="Fill-13" fill="#262E2E"></path>
                        <path d="M18.3862,11.1011 L18.3862,7.9481 L17.7852,6.6661 L17.7852,9.8161 C17.7852,17.5361 16.9212,18.2561 15.6132,18.9111 L15.6132,19.1901 L21.0322,19.1901 L21.0322,18.9111 C19.7342,18.3891 18.3862,18.2071 18.3862,11.1011" id="Fill-15" fill="#262E2E"></path>
                        <path d="M73.21,17.0699 C71.507,17.0699 69.601,15.1759 69.601,12.0109 C69.601,9.2389 70.663,5.8449 72.579,5.8449 C73.662,5.8449 74.34,6.8329 74.34,8.9049 C74.34,10.1009 73.827,10.3369 72.478,10.3369 L70.648,10.3369 L70.599,11.0969 L78.164,11.0799 C78.164,7.6579 76.249,5.2319 72.579,5.2319 C67.665,5.2319 65.563,8.9049 65.563,12.4159 C65.563,16.7669 68.42,19.5619 71.793,19.5619 C75.624,19.5619 77.453,16.4919 78.027,15.3119 L77.613,14.9469 C76.263,16.3619 75.114,17.0699 73.21,17.0699" id="Fill-17" fill="#262E2E"></path>
                        <g id="Group-21" transform="translate(42.000000, 34.606000)">
                            <mask id="mask-2" fill="white">
                                <use xlink:href="#path-1"></use>
                            </mask>
                            <g id="Clip-20"></g>
                            <path d="M2.9067,0.2832 L3.4467,0.6882 C2.7267,1.9022 3.0817,3.1542 5.0877,3.1542 L10.4717,3.1542 C13.1997,3.1542 14.1667,4.4342 14.1667,5.7632 C14.1667,6.9222 13.5957,8.2042 13.1737,9.0002 L12.5167,9.0002 C12.6827,7.5462 12.4197,7.0412 10.3627,7.0412 L4.5937,7.0412 C2.2767,7.0412 0.8377,5.8372 0.8377,4.1732 C0.8377,2.5322 1.8047,1.1822 2.9067,0.2832" id="Fill-19" fill="#262E2E" mask="url(#mask-2)"></path>
                        </g>
                        <path d="M49.4033,34.9888 C48.2653,34.9888 47.6153,33.8998 47.6153,29.7208 C47.6153,25.8048 48.1303,24.8368 49.4033,24.8368 C50.6763,24.8368 51.1913,25.8048 51.1913,29.7208 C51.1913,33.8998 50.5413,34.9888 49.4033,34.9888 M49.4033,24.0908 C45.7243,24.0908 43.2553,26.5248 43.2553,30.1038 C43.2553,33.5628 46.2643,35.7338 49.4033,35.7338 C52.5423,35.7338 55.5513,33.5628 55.5513,30.1038 C55.5513,26.5248 53.0823,24.0908 49.4033,24.0908" id="Fill-22" fill="#262E2E"></path>
                        <path d="M87.5034,27.0581 C87.5034,25.3461 86.3044,24.8371 85.0674,24.9951 L84.8794,24.4831 C84.8794,24.4831 86.1934,24.0911 87.3204,24.0911 C90.7384,24.0911 91.7484,25.8271 91.7484,29.0761 L91.7484,35.6171 C91.7484,36.6461 92.1384,37.0361 92.9334,37.0361 L93.0324,37.5481 C92.4614,37.8461 91.2954,38.2291 90.4294,38.2291 C89.5094,38.2291 88.6804,38.0431 88.2504,37.6721 C87.8204,37.3021 87.5034,36.7341 87.5034,35.6981 L87.5034,27.0581 Z M86.9494,36.9801 C86.0104,37.7291 84.6354,38.2291 83.8344,38.2291 C82.2474,38.2291 80.3844,37.3661 80.3844,35.2251 C80.3844,32.4831 83.9754,30.7771 87.5414,29.8521 L87.7354,30.4811 C86.2094,31.2071 84.1094,32.7331 84.1094,34.6811 C84.1094,36.5021 85.7464,36.6871 86.8004,36.4971 L86.9494,36.9801 Z" id="Fill-24" fill="#262E2E"></path>
                        <path d="M74.5649,28.0704 L74.5649,35.5304 C74.4889,36.8264 74.0459,37.4584 73.4989,37.8284 L73.4989,38.0504 L79.6189,38.0504 L79.6189,37.8024 C79.0249,37.4274 78.6729,36.7294 78.6729,35.3704 L78.6699,35.3704 L78.6699,28.5264 C78.6699,26.1474 77.7709,24.0914 74.9499,24.0914 L74.7859,24.0914 C73.2379,24.0914 71.0689,25.4974 71.0689,25.4974 L71.3129,25.9394 C73.5109,24.9844 74.5649,26.0124 74.5649,28.0704" id="Fill-26" fill="#262E2E"></path>
                        <path d="M67.3154,24.0909 C65.7664,24.0909 63.5974,25.4969 63.5974,25.4969 L63.8584,25.9729 C65.6684,25.2199 66.9444,25.7369 66.9444,28.4919 L66.9444,35.1339 L66.9404,35.1339 C66.9404,36.7079 66.4604,37.4209 65.8594,37.8279 L65.8594,38.0499 L71.9784,38.0499 L71.9784,37.8019 C71.3954,37.4339 71.0474,36.7489 71.0354,35.4359 L71.0354,28.5259 C71.0354,25.5399 69.8894,24.0909 67.3154,24.0909" id="Fill-28" fill="#262E2E"></path>
                        <path d="M10.1509,27.9712 C12.4619,27.4482 14.8749,26.1952 14.8749,23.6642 C14.8749,20.0662 11.4299,19.5152 7.5169,19.5152 C4.0949,19.5152 0.6889,19.5302 0.6889,19.5302 L0.6889,19.7522 C1.3409,20.1592 1.8619,20.7552 1.8619,22.3292 L1.8619,34.3062 C1.8619,36.6162 1.3409,37.4212 0.6889,37.8282 L0.6889,38.0712 L6.0499,38.0712 L6.0619,22.5562 C6.0619,20.9212 6.4309,20.0952 7.5869,20.0952 C9.5419,20.0952 10.8409,20.8482 10.8409,23.5962 C10.8409,26.4652 8.8509,27.6972 7.1829,27.8352 L7.1749,28.3332 C9.7279,28.4272 12.0219,29.6222 12.0219,32.8782 C12.0219,36.2942 9.1209,37.3542 7.1109,37.6322 L7.1069,38.0712 C11.5929,38.2962 16.1919,37.2052 16.1919,32.8022 C16.1919,29.5832 12.9789,28.3432 10.1509,27.9712" id="Fill-30" fill="#262E2E"></path>
                        <path d="M55.4858,24.7598 C54.3068,24.7598 53.3478,23.8008 53.3478,22.6218 C53.3478,21.4438 54.3068,20.4838 55.4858,20.4838 C56.6648,20.4838 57.6238,21.4438 57.6238,22.6218 C57.6238,23.8008 56.6648,24.7598 55.4858,24.7598" id="Fill-32" fill="#262E2E"></path>
                        <path d="M83.2129,29.4615 C82.0339,29.4615 81.0749,28.5025 81.0749,27.3235 C81.0749,26.1455 82.0339,25.1855 83.2129,25.1855 C84.3909,25.1855 85.3499,26.1455 85.3499,27.3235 C85.3499,28.5025 84.3909,29.4615 83.2129,29.4615" id="Fill-34" fill="#262E2E"></path>
                        <path d="M36.7534,35.3706 C36.7534,36.7296 37.1054,37.4276 37.6984,37.8026 L37.6984,38.0496 L31.5794,38.0496 L31.5794,37.8276 C32.1804,37.4216 32.6614,36.7076 32.6614,35.1336 L32.6614,28.6036 C32.6614,27.0296 32.1804,26.3156 31.5794,25.9096 L31.5794,25.6876 L36.5384,23.9586 L36.7534,24.1806 L36.7534,35.3706 Z" id="Fill-36" fill="#262E2E"></path>
                        <path d="M39.999,28.7373 C38.82,28.7373 37.861,27.7783 37.861,26.5993 C37.861,25.4203 38.82,24.4613 39.999,24.4613 C41.178,24.4613 42.137,25.4203 42.137,26.5993 C42.137,27.7783 41.178,28.7373 39.999,28.7373" id="Fill-38" fill="#262E2E"></path>
                        <path d="M25.2681,35.9292 C23.5651,35.9292 21.6591,34.0352 21.6591,30.8702 C21.6591,28.0982 22.7211,24.7042 24.6371,24.7042 C25.7201,24.7042 26.3981,25.6922 26.3981,27.7642 C26.3981,28.9612 25.8851,29.1962 24.5361,29.1962 L22.7071,29.1962 L22.6571,29.9562 L30.2221,29.9392 C30.2221,26.5172 28.3071,24.0912 24.6371,24.0912 C19.7231,24.0912 17.6211,27.7642 17.6211,31.2752 C17.6211,35.6262 20.4781,38.4212 23.8511,38.4212 C27.6821,38.4212 29.5111,35.3512 30.0851,34.1712 L29.6711,33.8062 C28.3211,35.2212 27.1721,35.9292 25.2681,35.9292" id="Fill-40" fill="#262E2E"></path>
                        <path d="M63.0176,35.3706 C63.0176,36.7296 63.3696,37.4276 63.9626,37.8026 L63.9626,38.0496 L57.8436,38.0496 L57.8436,37.8276 C58.4446,37.4216 58.9256,36.7076 58.9256,35.1336 L58.9256,28.6036 C58.9256,27.0296 58.4446,26.3156 57.8436,25.9096 L57.8436,25.6876 L62.8026,23.9586 L63.0176,24.1806 L63.0176,35.3706 Z" id="Fill-42" fill="#262E2E"></path>
                        <path d="M99.041,35.3706 C99.041,36.7296 99.393,37.4276 99.986,37.8026 L99.986,38.0496 L93.867,38.0496 L93.867,37.8276 C94.468,37.4216 94.949,36.7076 94.949,35.1336 L94.949,28.6036 C94.949,27.0296 94.468,26.3156 93.867,25.9096 L93.867,25.6876 L98.826,23.9586 L99.041,24.1806 L99.041,35.3706 Z" id="Fill-44" fill="#262E2E"></path>
                        <path d="M102.9653,28.0704 L102.9653,35.5304 C102.8893,36.8264 102.4463,37.4584 101.8993,37.8284 L101.8993,38.0504 L108.0183,38.0504 L108.0183,37.8024 C107.4253,37.4274 107.0733,36.7294 107.0733,35.3704 L107.0703,35.3704 L107.0703,28.5264 C107.0703,26.1474 106.1713,24.0914 103.3503,24.0914 L103.3393,24.0914 C101.7913,24.0914 99.4693,25.4974 99.4693,25.4974 L99.7133,25.9394 C101.9113,24.9844 102.9653,26.0124 102.9653,28.0704" id="Fill-46" fill="#262E2E"></path>
                    </g>
                </g>
            </g>
        </g>
    </g>
</svg>