<?xml version="1.0" encoding="UTF-8" standalone="no"?>
<svg width="34px" height="35px" viewBox="0 0 34 35" version="1.1" xmlns="http://www.w3.org/2000/svg" xmlns:xlink="http://www.w3.org/1999/xlink">
    <!-- Generator: Sketch 39.1 (31720) - http://www.bohemiancoding.com/sketch -->
    <title>MB_Circle@3x</title>
    <desc>Created with Sketch.</desc>
    <defs>
        <polygon id="path-1" points="33.9547592 34.3 0 34.3 0 0.04634 33.9547592 0.04634"></polygon>
    </defs>
    <g id="Symbols" stroke="none" stroke-width="1" fill="none" fill-rule="evenodd">
        <g id="Footer-Dark" transform="translate(-123.000000, -27.000000)">
            <g transform="translate(-2.000000, 0.000000)" id="MB_Circle">
                <g transform="translate(125.000000, 27.000000)">
                    <g id="Group-3" transform="translate(0.000000, 0.653520)">
                        <mask id="mask-2" fill="white">
                            <use xlink:href="#path-1"></use>
                        </mask>
                        <g id="Clip-2"></g>
                        <path d="M16.9776571,0.95774 C8.11475918,0.95774 0.903983673,8.23214 0.903983673,17.17324 C0.903983673,26.11434 8.11475918,33.38874 16.9776571,33.38874 C25.8398612,33.38874 33.0506367,26.11434 33.0506367,17.17324 C33.0506367,8.23214 25.8398612,0.95774 16.9776571,0.95774 M16.9776571,34.30014 C7.6165551,34.30014 -0.000138775511,26.61694 -0.000138775511,17.17324 C-0.000138775511,7.72954 7.6165551,0.04634 16.9776571,0.04634 C26.3380653,0.04634 33.9547592,7.72954 33.9547592,17.17324 C33.9547592,26.61694 26.3380653,34.30014 16.9776571,34.30014" id="Fill-1" fill="#FFFFFF" mask="url(#mask-2)"></path>
                    </g>
                    <path d="M8.46273878,18.78786 L8.46273878,16.51216 L8.03322857,15.58746 L8.03322857,17.86036 C8.03322857,23.43166 7.4142898,23.95106 6.47963673,24.42426 L6.47963673,24.62586 L10.3563306,24.62586 L10.3563306,24.42426 C9.42792245,24.04766 8.46273878,23.91606 8.46273878,18.78786" id="Fill-4" fill="#FFFFFF"></path>
                    <path d="M7.09871429,11.2301 L7.09871429,11.3904 C7.58026531,11.683 8.23667347,11.8265 9.08042857,13.9692 L13.7391224,24.626 L14.0409592,24.626 L15.6056531,20.4638 L11.520102,11.2378 L7.09871429,11.2301 Z" id="Fill-6" fill="#FFFFFF"></path>
                    <path d="M23.8547469,17.37078 L23.8547469,17.32178 C25.4694,16.92838 27.1118082,16.02538 27.1118082,14.24318 C27.1118082,11.64688 24.7567878,11.24998 21.9583796,11.24998 C20.8405429,11.24998 19.7039714,11.25208 18.7963796,11.25488 L17.8034408,13.96318 L17.8034408,21.92358 C17.8034408,23.59168 17.4308286,24.17198 16.963849,24.46528 L16.963849,24.64098 L20.7996041,24.64098 L20.8072367,13.44448 C20.8072367,12.26428 21.1812367,11.66858 22.0076449,11.66858 C23.2545429,11.66858 24.2266653,12.21178 24.2266653,14.19558 C24.2266653,16.26548 22.8028286,17.15378 21.6100531,17.25458 L21.6038082,17.61368 C23.4314816,17.68088 25.0711143,18.54328 25.0711143,20.89248 C25.0711143,23.35928 22.9964204,24.12368 21.5580122,24.32458 L21.5559306,24.64098 C24.7651143,24.80268 28.0554816,24.01588 28.0554816,20.83788 C28.0554816,18.56078 25.8468694,17.65778 23.8547469,17.37078" id="Fill-8" fill="#FFFFFF"></path>
                </g>
            </g>
        </g>
    </g>
</svg>